<?xml version="1.0" encoding="UTF-8"?>
<!DOCTYPE svg PUBLIC "-//W3C//DTD SVG 1.1//EN" "http://www.w3.org/Graphics/SVG/1.1/DTD/svg11.dtd">
<svg xmlns="http://www.w3.org/2000/svg" version="1.1" width="900px" height="1057px" style="shape-rendering:geometricPrecision; text-rendering:geometricPrecision; image-rendering:optimizeQuality; fill-rule:evenodd; clip-rule:evenodd" xmlns:xlink="http://www.w3.org/1999/xlink">
<g><path style="opacity:0.998" fill="#011627" d="M 448.5,-0.5 C 449.833,-0.5 451.167,-0.5 452.5,-0.5C 490.087,25.3057 528.421,50.139 567.5,74C 671.893,145.391 776.56,216.391 881.5,287C 889.244,292.073 894.744,298.906 898,307.5C 898.169,320.673 898.669,333.673 899.5,346.5C 899.5,479.833 899.5,613.167 899.5,746.5C 898.686,748.631 898.186,750.964 898,753.5C 896.667,755.5 895.333,757.5 894,759.5C 884.783,767.051 875.283,774.218 865.5,781C 742.833,864.333 620.167,947.667 497.5,1031C 481.28,1039.27 465.28,1047.77 449.5,1056.5C 448.167,1056.5 446.833,1056.5 445.5,1056.5C 422.065,1042.94 398.732,1029.11 375.5,1015C 254.647,933.742 134.313,851.742 14.5,769C 8.59698,764.599 3.59698,759.432 -0.5,753.5C -0.5,605.5 -0.5,457.5 -0.5,309.5C 3.76606,301.051 9.43273,293.551 16.5,287C 110.152,221.84 204.152,157.173 298.5,93C 349.068,62.5595 399.068,31.3928 448.5,-0.5 Z"/></g>
<g><path style="opacity:1" fill="#fd3265" d="M 752.5,654.5 C 753.49,660.645 753.823,666.978 753.5,673.5C 753.313,691.896 747.48,708.229 736,722.5C 727.435,731.735 718.268,740.235 708.5,748C 699.876,752.239 690.876,755.406 681.5,757.5C 679.647,756.811 678.481,755.478 678,753.5C 676.979,744.704 675.312,736.037 673,727.5C 671.221,721.275 668.388,715.609 664.5,710.5C 697.078,670.867 698.911,629.867 670,587.5C 665.465,581.968 660.631,576.801 655.5,572C 669.318,543.598 671.152,514.431 661,484.5C 657.755,477.676 654.255,471.009 650.5,464.5C 658.634,459.596 666.634,454.429 674.5,449C 692.698,431.747 700.198,410.58 697,385.5C 694.268,376.868 690.101,369.034 684.5,362C 679.676,358.676 674.343,357.676 668.5,359C 667.409,361.064 667.242,363.231 668,365.5C 675.457,382.791 676.457,400.458 671,418.5C 663.94,433.569 652.274,442.569 636,445.5C 634.833,445.333 633.667,445.167 632.5,445C 626.517,438.681 619.684,433.514 612,429.5C 611.333,428.167 611.333,426.833 612,425.5C 642.659,396.202 647.992,362.869 628,325.5C 615.512,306.359 598.346,293.193 576.5,286C 569.535,284.746 562.535,284.413 555.5,285C 549.177,287.811 546.677,292.645 548,299.5C 548.785,301.286 549.951,302.786 551.5,304C 583.526,305.71 605.026,321.543 616,351.5C 621.144,376.738 613.978,397.571 594.5,414C 586.687,418.264 578.354,419.597 569.5,418C 563.438,417.476 557.438,416.642 551.5,415.5C 542.33,415.345 534.83,418.679 529,425.5C 526.868,432.555 529.035,437.555 535.5,440.5C 572.122,433.351 602.956,443.351 628,470.5C 652.103,508.462 651.103,545.795 625,582.5C 606.964,599.934 585.464,610.601 560.5,614.5C 560.5,606.833 560.5,599.167 560.5,591.5C 555.5,591.5 550.5,591.5 545.5,591.5C 547.645,553.864 548.478,516.197 548,478.5C 546.86,473.36 543.694,470.193 538.5,469C 535.899,468.08 533.232,467.413 530.5,467C 512.836,466.5 495.17,466.333 477.5,466.5C 476.264,424.006 476.264,381.506 477.5,339C 477.029,313.813 476.029,288.646 474.5,263.5C 475.831,239.004 486.831,220.17 507.5,207C 525.543,196.827 544.876,193.494 565.5,197C 605.249,204.082 628.082,227.582 634,267.5C 636,278.5 636,289.5 634,300.5C 632.771,305.529 630.771,310.196 628,314.5C 626.92,317.237 627.754,318.904 630.5,319.5C 632.61,318.946 634.61,318.112 636.5,317C 641.49,309.852 644.99,302.019 647,293.5C 648.529,286.681 649.695,279.847 650.5,273C 688.988,276.509 713.154,297.009 723,334.5C 723.925,338.445 724.425,342.445 724.5,346.5C 722.794,361.466 721.96,376.466 722,391.5C 724.013,388.298 726.846,386.631 730.5,386.5C 741.949,389.76 751.449,396.094 759,405.5C 781.556,435.929 782.223,466.929 761,498.5C 758.072,502.381 754.239,504.881 749.5,506C 742.167,506.667 734.833,506.667 727.5,506C 717.381,502.813 707.048,501.479 696.5,502C 690.704,506.24 690.037,511.24 694.5,517C 699.774,520.47 705.44,523.136 711.5,525C 722.833,525.667 734.167,525.667 745.5,525C 752.135,522.563 758.801,520.563 765.5,519C 774.155,529.474 780.321,541.307 784,554.5C 785.257,585.399 774.757,611.565 752.5,633C 745.167,637.333 737.833,641.667 730.5,646C 727.333,647.833 724.833,650.333 723,653.5C 722.499,658.17 724.666,660.503 729.5,660.5C 737.311,658.964 744.977,656.964 752.5,654.5 Z"/></g>
<g><path style="opacity:1" fill="#fe3265" d="M 332.5,200.5 C 362.339,196.235 387.506,204.902 408,226.5C 420.118,241.686 425.951,259.019 425.5,278.5C 423.669,342.817 423.002,407.151 423.5,471.5C 402.164,471.333 380.831,471.5 359.5,472C 349.636,476.23 345.969,483.73 348.5,494.5C 349.403,528.493 349.736,562.493 349.5,596.5C 346.428,596.183 343.428,596.516 340.5,597.5C 340,598.5 339.5,599.5 339,600.5C 338.667,604.833 338.333,609.167 338,613.5C 336.352,615.028 334.352,615.695 332,615.5C 288.785,607.951 263.118,582.618 255,539.5C 249.977,491.243 270.477,460.076 316.5,446C 334.456,444.735 352.456,444.069 370.5,444C 378.78,436.89 378.446,430.223 369.5,424C 367.283,422.725 364.949,421.725 362.5,421C 348.378,419.915 334.378,420.748 320.5,423.5C 302.235,418.067 290.402,406.067 285,387.5C 278.797,360.44 286.297,338.273 307.5,321C 320.26,314.06 333.926,310.393 348.5,310C 353.953,307.596 356.119,303.429 355,297.5C 352.362,293.872 348.862,291.372 344.5,290C 330.881,288.094 318.214,290.761 306.5,298C 298.08,303.253 290.08,309.087 282.5,315.5C 271.476,297.045 267.643,277.045 271,255.5C 276.547,230.613 291.38,213.779 315.5,205C 321.314,203.553 326.981,202.053 332.5,200.5 Z"/></g>
<g><path style="opacity:1" fill="#fd3265" d="M 231.5,279.5 C 237.868,279.17 244.202,279.504 250.5,280.5C 252.422,292.191 255.589,303.524 260,314.5C 262.382,317.427 264.882,320.261 267.5,323C 269.217,324.559 271.217,325.392 273.5,325.5C 270.632,334.244 267.465,342.91 264,351.5C 257.46,383.546 266.293,410.379 290.5,432C 281.757,436.916 273.423,442.416 265.5,448.5C 239.738,443.231 226.405,427.398 225.5,401C 225.494,396.764 225.994,392.598 227,388.5C 229.593,382.481 231.76,376.315 233.5,370C 233.357,367.849 232.357,366.182 230.5,365C 223.676,363.055 218.176,364.888 214,370.5C 206.089,383.058 203.422,396.725 206,411.5C 206.369,428.659 212.869,442.826 225.5,454C 233.334,459.085 241.334,463.918 249.5,468.5C 228.449,502.985 226.116,538.652 242.5,575.5C 235.529,583.43 229.029,591.763 223,600.5C 210.03,623.32 206.03,647.653 211,673.5C 215.139,688.116 222.139,701.116 232,712.5C 232.667,713.833 232.667,715.167 232,716.5C 224.773,730.347 220.273,745.014 218.5,760.5C 215.554,761.655 212.554,761.821 209.5,761C 162.145,744.485 141.145,711.319 146.5,661.5C 147.5,661.167 148.5,660.833 149.5,660.5C 156.702,662.434 164.035,663.434 171.5,663.5C 171.677,658.195 170.51,653.195 168,648.5C 158.393,644.96 149.226,640.46 140.5,635C 115.179,608.595 108.679,578.095 121,543.5C 125.04,535.919 129.207,528.419 133.5,521C 136.739,521.446 139.739,522.779 142.5,525C 156.016,530.242 170.016,531.909 184.5,530C 193.141,528.106 199.974,523.606 205,516.5C 206.123,513.044 205.29,510.21 202.5,508C 199.425,506.993 196.258,506.493 193,506.5C 187.321,506.838 181.821,508.005 176.5,510C 157.54,515.468 143.04,509.968 133,493.5C 118.505,468.096 119.172,443.096 135,418.5C 141.5,408 150,399.5 160.5,393C 163.308,392.08 165.475,392.913 167,395.5C 171.609,405.439 177.775,414.272 185.5,422C 188.997,425.013 192.997,426.847 197.5,427.5C 196.517,419.201 192.684,412.534 186,407.5C 184.333,404.5 182.667,401.5 181,398.5C 176.283,377.012 174.95,355.345 177,333.5C 185.079,305.254 203.246,287.254 231.5,279.5 Z"/></g>
<g><path style="opacity:1" fill="#434343" d="M 432.5,952.5 C 432.5,908.833 432.5,865.167 432.5,821.5C 426.833,821.5 421.167,821.5 415.5,821.5C 415.5,811.5 415.5,801.5 415.5,791.5C 392.192,785.03 376.359,770.363 368,747.5C 366.523,697.205 366.023,646.872 366.5,596.5C 371.167,596.5 375.833,596.5 380.5,596.5C 380.422,564.163 380.089,531.83 379.5,499.5C 426.5,499.5 473.5,499.5 520.5,499.5C 520.207,531.834 519.873,564.167 519.5,596.5C 523.167,596.5 526.833,596.5 530.5,596.5C 528.349,638.483 528.015,680.483 529.5,722.5C 531.306,758.217 514.972,780.884 480.5,790.5C 480.5,800.833 480.5,811.167 480.5,821.5C 474.833,821.5 469.167,821.5 463.5,821.5C 463.667,878.501 463.5,935.501 463,992.5C 457.939,995.737 452.773,998.737 447.5,1001.5C 442.599,999.271 437.933,996.605 433.5,993.5C 432.501,979.85 432.167,966.183 432.5,952.5 Z"/></g>
<g><path style="opacity:1" fill="#ebebeb" d="M 510.5,505.5 C 510.5,533.5 510.5,561.5 510.5,589.5C 470.167,589.5 429.833,589.5 389.5,589.5C 389.829,576.323 389.495,563.323 388.5,550.5C 388.5,535.5 388.5,520.5 388.5,505.5C 429.167,505.5 469.833,505.5 510.5,505.5 Z"/></g>
<g><path style="opacity:1" fill="#434343" d="M 436.5,535.5 C 436.5,544.167 436.5,552.833 436.5,561.5C 427.167,561.5 417.833,561.5 408.5,561.5C 406.53,553.231 405.864,544.565 406.5,535.5C 416.5,535.5 426.5,535.5 436.5,535.5 Z"/></g>
<g><path style="opacity:1" fill="#454545" d="M 491.5,535.5 C 491.5,544.167 491.5,552.833 491.5,561.5C 488.167,561.5 484.833,561.5 481.5,561.5C 475.167,561.5 468.833,561.5 462.5,561.5C 461.58,552.932 461.58,544.432 462.5,536C 472.161,535.5 481.828,535.334 491.5,535.5 Z"/></g>
<g><path style="opacity:1" fill="#898989" d="M 436.5,535.5 C 437.493,544.318 437.827,553.318 437.5,562.5C 427.652,562.827 417.986,562.494 408.5,561.5C 417.833,561.5 427.167,561.5 436.5,561.5C 436.5,552.833 436.5,544.167 436.5,535.5 Z"/></g>
<g><path style="opacity:1" fill="#949494" d="M 491.5,535.5 C 492.493,544.318 492.827,553.318 492.5,562.5C 488.629,562.815 484.962,562.482 481.5,561.5C 484.833,561.5 488.167,561.5 491.5,561.5C 491.5,552.833 491.5,544.167 491.5,535.5 Z"/></g>
<g><path style="opacity:1" fill="#b7b7b7" d="M 510.5,505.5 C 511.498,533.662 511.831,561.995 511.5,590.5C 470.5,590.5 429.5,590.5 388.5,590.5C 388.5,577.167 388.5,563.833 388.5,550.5C 389.495,563.323 389.829,576.323 389.5,589.5C 429.833,589.5 470.167,589.5 510.5,589.5C 510.5,561.5 510.5,533.5 510.5,505.5 Z"/></g>
<g><path style="opacity:1" fill="#fd3265" d="M 643.5,591.5 C 648.009,593.165 651.509,596.165 654,600.5C 677.015,641.406 671.181,677.573 636.5,709C 616.507,723.8 594.007,731.966 569,733.5C 565.361,733.518 561.861,732.852 558.5,731.5C 557.5,698.84 557.167,666.173 557.5,633.5C 592.58,632.292 621.247,618.292 643.5,591.5 Z"/></g>
<g><path style="opacity:1" fill="#fd3265" d="M 254.5,594.5 C 258.726,596.564 261.892,599.898 264,604.5C 285.149,626.242 310.816,638.242 341,640.5C 341.5,672.498 341.667,704.498 341.5,736.5C 300.681,740.288 267.848,725.955 243,693.5C 230.101,669.779 228.101,645.113 237,619.5C 241.107,609.904 246.94,601.57 254.5,594.5 Z"/></g>
<g><path style="opacity:1" fill="#c6f805" d="M 482.5,639.5 C 487.971,639.301 490.971,641.967 491.5,647.5C 489.898,653.37 487.232,658.703 483.5,663.5C 492.465,662.3 496.298,666.3 495,675.5C 494.167,677.667 492.667,679.167 490.5,680C 484.691,681.202 479.024,682.869 473.5,685C 466.032,684.965 463.198,681.132 465,673.5C 467.12,668.758 469.62,664.258 472.5,660C 469.94,660.438 467.44,660.271 465,659.5C 462.702,655.782 462.035,651.782 463,647.5C 464.579,645.959 466.413,644.792 468.5,644C 473.38,642.788 478.047,641.288 482.5,639.5 Z"/></g>
<g><path style="opacity:1" fill="#872448" d="M 752.5,654.5 C 752.56,653.957 752.893,653.624 753.5,653.5C 754.818,660.322 754.818,666.989 753.5,673.5C 753.823,666.978 753.49,660.645 752.5,654.5 Z"/></g>
<g><path style="opacity:1" fill="#c6f904" d="M 443.5,675.5 C 451.81,673.337 455.644,676.337 455,684.5C 452.4,688.367 450.4,692.367 449,696.5C 451.112,694.078 453.112,694.078 455,696.5C 456.504,700.039 456.837,703.705 456,707.5C 455.097,708.701 453.931,709.535 452.5,710C 447.134,711.439 441.801,712.939 436.5,714.5C 433.092,713.422 431.092,711.089 430.5,707.5C 431.985,701.695 434.652,696.529 438.5,692C 436.236,691.764 434.069,691.264 432,690.5C 430.646,686.637 430.146,682.637 430.5,678.5C 435.052,677.943 439.385,676.943 443.5,675.5 Z"/></g>
<g><path style="opacity:1" fill="#c5f706" d="M 410.5,707.5 C 418.794,706.036 422.294,709.37 421,717.5C 419.291,720.418 417.458,723.252 415.5,726C 421.928,726.55 424.428,730.05 423,736.5C 422.5,738.333 421.333,739.5 419.5,740C 399.972,747.48 394.972,742.147 404.5,724C 402.324,723.837 400.491,723.004 399,721.5C 398.333,718.5 398.333,715.5 399,712.5C 402.61,710.15 406.444,708.484 410.5,707.5 Z"/></g>
<g><path style="opacity:1" fill="#fd3265" d="M 645.5,726.5 C 650.429,733.754 653.929,741.754 656,750.5C 660.253,796.49 640.753,827.656 597.5,844C 576.231,849.531 554.898,849.865 533.5,845C 523.444,841.473 514.111,836.639 505.5,830.5C 513.277,825.899 520.944,821.065 528.5,816C 538.93,806.32 546.763,794.82 552,781.5C 554.945,773.342 557.445,765.176 559.5,757C 583.788,755.845 606.788,749.845 628.5,739C 634.63,735.356 640.297,731.189 645.5,726.5 Z"/></g>
<g><path style="opacity:1" fill="#fd3265" d="M 248.5,732.5 C 264.601,742.215 281.601,750.381 299.5,757C 312.811,758.997 326.145,760.831 339.5,762.5C 341.897,770.192 344.397,777.859 347,785.5C 356.158,801.976 362.325,819.476 365.5,838C 365.715,842.018 364.715,845.685 362.5,849C 326.828,858.798 294.494,852.465 265.5,830C 238.532,805.195 231.366,775.362 244,740.5C 245.259,737.644 246.759,734.977 248.5,732.5 Z"/></g>
<g><path style="opacity:1" fill="#e5e5e5" d="M 422.5,792.5 C 439.833,792.5 457.167,792.5 474.5,792.5C 474.5,800.833 474.5,809.167 474.5,817.5C 457.167,817.5 439.833,817.5 422.5,817.5C 422.5,809.167 422.5,800.833 422.5,792.5 Z"/></g>
<g><path style="opacity:1" fill="#eaeaea" d="M 437.5,827.5 C 444.167,827.5 450.833,827.5 457.5,827.5C 457.812,881.519 457.479,935.519 456.5,989.5C 450.5,989.5 444.5,989.5 438.5,989.5C 437.513,935.53 437.179,881.53 437.5,827.5 Z"/></g>
<g><path style="opacity:1" fill="#1f2a33" d="M 415.5,821.5 C 421.167,821.5 426.833,821.5 432.5,821.5C 432.5,865.167 432.5,908.833 432.5,952.5C 431.501,909.337 431.168,866.003 431.5,822.5C 425.974,822.821 420.64,822.488 415.5,821.5 Z"/></g>
</svg>
